<svg width="38" height="38" viewBox="0 0 38 38" fill="none" xmlns="http://www.w3.org/2000/svg">
<path fill-rule="evenodd" clip-rule="evenodd" d="M17.2166 5.99997L28 10.5485V17.6624L19.2442 14.2161V25.9062H19.2256C19.238 26.0584 19.2442 26.2124 19.2442 26.3678C19.2442 29.4784 16.7271 32 13.6221 32C10.5171 32 8 29.4784 8 26.3678C8 23.2573 10.5171 20.7357 13.6221 20.7357C14.9891 20.7357 16.2421 21.2244 17.2166 22.037V5.99997ZM19.2442 12.0337L25.9723 14.6819V11.8972L19.2442 9.05923V12.0337ZM13.6221 22.767C11.6369 22.767 10.0276 24.3791 10.0276 26.3678C10.0276 28.3566 11.6369 29.9687 13.6221 29.9687C15.6073 29.9687 17.2166 28.3566 17.2166 26.3678C17.2166 24.3791 15.6073 22.767 13.6221 22.767Z" fill="#632EB9"/>
</svg>
